<svg width="54" height="54" viewBox="0 0 54 54" fill="none" xmlns="http://www.w3.org/2000/svg">
<g opacity="0.3">
<path d="M44.2068 27.2153C44.2068 24.7886 42.2332 22.815 39.8065 22.815H37.6063V16.2146C37.6063 10.1488 32.6714 5.21387 26.6056 5.21387C20.5398 5.21387 15.6048 10.1488 15.6048 16.2146V22.815H13.4047C10.9779 22.815 9.00441 24.7886 9.00441 27.2153V44.8165C9.00441 47.2433 10.9779 49.2168 13.4047 49.2168H39.8065C42.2332 49.2168 44.2068 47.2433 44.2068 44.8165V27.2153ZM20.0051 16.2146C20.0051 12.5756 22.9665 9.61416 26.6056 9.61416C30.2446 9.61416 33.206 12.5756 33.206 16.2146V22.815H20.0051V16.2146Z" fill="#333333"/>
</g>
</svg>
