<svg width="237" height="86" viewBox="0 0 237 86" fill="none" xmlns="http://www.w3.org/2000/svg">
<path d="M15.3439 16.8425H0V20.5182H14.3209L21.4813 24.1939L29.6647 20.5182H43.4742V16.8425H27.6189L21.4813 20.0588L15.3439 16.8425Z" fill="#FF0047"/>
<path d="M16.8782 26.9507H0V30.167H13.298V54.9779L16.8782 57.2752V26.9507Z" fill="#183AB1"/>
<path d="M26.596 26.9507H43.4742V30.167H30.1762V54.9779L26.596 57.2752V26.9507Z" fill="#183AB1"/>
<path d="M0 59.1129V36.1399H4.09169V56.8157L21.4813 64.6264L39.3826 56.8157V36.1399H43.4742V59.1129L21.4813 69.2211L0 59.1129Z" fill="#183AB1"/>
<path d="M49.8271 20.7815H61.1904C66.2041 20.7815 69.9736 21.5318 72.4988 23.0322C75.0239 24.5327 76.2865 27.0853 76.2865 30.6901C76.2865 32.2455 75.9846 33.6453 75.3808 34.8896C74.7952 36.1156 73.9352 37.1311 72.8007 37.9363C71.6662 38.7414 70.2664 39.2995 68.6012 39.6106V39.8851C70.3578 40.1595 71.9132 40.6627 73.2673 41.3947C74.6214 42.1266 75.6827 43.1513 76.4512 44.4688C77.2197 45.7863 77.604 47.4606 77.604 49.4917C77.604 51.962 77.0276 54.048 75.8748 55.7498C74.7403 57.4515 73.1301 58.7416 71.044 59.6199C68.958 60.4799 66.4877 60.9099 63.6332 60.9099H49.8271V20.7815ZM54.4931 37.9912H62.1785C65.6735 37.9912 68.0888 37.4148 69.4246 36.262C70.7787 35.1092 71.4558 33.4257 71.4558 31.2116C71.4558 28.9243 70.6506 27.2775 69.0404 26.2711C67.4484 25.2646 64.9049 24.7614 61.4099 24.7614H54.4931V37.9912ZM54.4931 41.9162V56.93H62.8372C66.4054 56.93 68.9306 56.2347 70.4127 54.844C71.8949 53.435 72.636 51.5411 72.636 49.1623C72.636 47.6436 72.2975 46.3444 71.6204 45.2648C70.9617 44.1852 69.8821 43.3618 68.3816 42.7945C66.8995 42.209 64.9141 41.9162 62.4255 41.9162H54.4931ZM114.933 60.9099H109.279L90.8338 40.5438V60.9099H86.1677V20.7815H90.8338V40.2144L108.812 20.7815H114.164L96.4056 40.2693L114.933 60.9099ZM115.043 30.8274H119.928L126.571 48.284C126.955 49.3087 127.312 50.2968 127.641 51.2484C127.97 52.1816 128.263 53.0782 128.519 53.9382C128.775 54.7982 128.977 55.6308 129.123 56.436H129.315C129.571 55.521 129.937 54.3225 130.413 52.8403C130.889 51.3399 131.401 49.8119 131.95 48.2566L138.236 30.8274H143.149L130.056 65.329C129.361 67.1771 128.547 68.7874 127.614 70.1598C126.699 71.5321 125.582 72.5843 124.265 73.3162C122.947 74.0665 121.355 74.4416 119.489 74.4416C118.629 74.4416 117.87 74.3867 117.211 74.2769C116.552 74.1854 115.985 74.0756 115.509 73.9475V70.297C115.912 70.3885 116.397 70.4708 116.964 70.544C117.549 70.6172 118.153 70.6538 118.775 70.6538C119.91 70.6538 120.889 70.4342 121.712 69.9951C122.554 69.5742 123.277 68.9521 123.881 68.1286C124.484 67.3052 125.006 66.3262 125.445 65.1917L127.092 60.9648L115.043 30.8274ZM162.088 30.2784C165.839 30.2784 168.831 31.5684 171.063 34.1485C173.295 36.7286 174.412 40.6078 174.412 45.7863C174.412 49.2081 173.899 52.0809 172.875 54.4048C171.85 56.7287 170.404 58.4854 168.538 59.6748C166.69 60.8642 164.503 61.4589 161.978 61.4589C160.386 61.4589 158.986 61.2484 157.778 60.8276C156.571 60.4067 155.537 59.8395 154.677 59.1258C153.817 58.4122 153.103 57.6345 152.536 56.7928H152.207C152.261 57.5064 152.326 58.3664 152.399 59.3728C152.49 60.3793 152.536 61.2576 152.536 62.0078V74.3592H147.952V30.8274H151.713L152.316 35.2739H152.536C153.121 34.3589 153.835 33.5264 154.677 32.7761C155.519 32.0076 156.543 31.4038 157.751 30.9646C158.977 30.5071 160.423 30.2784 162.088 30.2784ZM161.292 34.1211C159.206 34.1211 157.522 34.5236 156.241 35.3288C154.979 36.1339 154.055 37.3416 153.469 38.9518C152.884 40.5438 152.573 42.5475 152.536 44.9629V45.8412C152.536 48.3847 152.81 50.5347 153.359 52.2914C153.927 54.048 154.851 55.3838 156.132 56.2987C157.431 57.2136 159.169 57.6711 161.347 57.6711C163.213 57.6711 164.768 57.1679 166.013 56.1615C167.257 55.1551 168.181 53.7552 168.785 51.962C169.407 50.1505 169.718 48.0736 169.718 45.7314C169.718 42.1815 169.023 39.3636 167.632 37.2775C166.26 35.1732 164.146 34.1211 161.292 34.1211Z" fill="#183AB1"/>
<path d="M194.421 61.4589C191.713 61.4589 189.325 60.9008 187.257 59.7846C185.189 58.6684 183.579 56.9666 182.426 54.6793C181.274 52.392 180.697 49.51 180.697 46.0333C180.697 42.3919 181.301 39.4184 182.509 37.1129C183.735 34.789 185.418 33.0689 187.559 31.9527C189.7 30.8365 192.134 30.2784 194.86 30.2784C196.361 30.2784 197.806 30.4339 199.197 30.745C200.606 31.0378 201.759 31.4129 202.655 31.8704L201.283 35.6856C200.368 35.3196 199.307 34.9902 198.099 34.6975C196.91 34.4047 195.793 34.2583 194.75 34.2583C192.664 34.2583 190.926 34.7066 189.535 35.6032C188.163 36.4999 187.129 37.8173 186.434 39.5557C185.757 41.294 185.418 43.4349 185.418 45.9784C185.418 48.4121 185.748 50.489 186.406 52.209C187.083 53.9291 188.081 55.2466 189.398 56.1615C190.734 57.0581 192.399 57.5064 194.394 57.5064C195.985 57.5064 197.422 57.3417 198.703 57.0124C199.984 56.6647 201.146 56.2621 202.189 55.8047V59.8669C201.182 60.3793 200.057 60.7727 198.813 61.0472C197.587 61.3216 196.123 61.4589 194.421 61.4589ZM220.908 30.2784C223.47 30.2784 225.665 30.8457 227.495 31.9802C229.325 33.1147 230.725 34.7066 231.695 36.756C232.665 38.7872 233.15 41.1659 233.15 43.8924V46.7195H212.372C212.427 50.2511 213.305 52.941 215.007 54.7891C216.708 56.6372 219.105 57.5613 222.198 57.5613C224.101 57.5613 225.784 57.3875 227.248 57.0398C228.712 56.6921 230.231 56.1798 231.805 55.5027V59.5101C230.286 60.1871 228.776 60.6812 227.276 60.9923C225.794 61.3033 224.037 61.4589 222.006 61.4589C219.115 61.4589 216.589 60.8733 214.43 59.7022C212.289 58.5128 210.624 56.7745 209.435 54.4872C208.245 52.1999 207.651 49.4002 207.651 46.0882C207.651 42.8494 208.19 40.0497 209.27 37.6893C210.368 35.3105 211.905 33.4806 213.881 32.1997C215.876 30.9188 218.218 30.2784 220.908 30.2784ZM220.853 34.0113C218.419 34.0113 216.48 34.8073 215.034 36.3992C213.589 37.9912 212.728 40.2144 212.454 43.069H228.374C228.355 41.2757 228.072 39.7021 227.523 38.348C226.992 36.9756 226.178 35.9143 225.08 35.1641C223.982 34.3955 222.573 34.0113 220.853 34.0113Z" fill="#FF0047"/>
</svg>
