<?xml version="1.0" encoding="iso-8859-1"?>
<!-- Generator: Adobe Illustrator 18.0.0, SVG Export Plug-In . SVG Version: 6.00 Build 0)  -->
<!DOCTYPE svg PUBLIC "-//W3C//DTD SVG 1.1//EN" "http://www.w3.org/Graphics/SVG/1.1/DTD/svg11.dtd">
<svg width="24px" height="24px" version="1.1" id="Capa_1" xmlns="http://www.w3.org/2000/svg" xmlns:xlink="http://www.w3.org/1999/xlink" x="0px" y="0px"
	 viewBox="0 0 365.702 365.702" style="enable-background:new 0 0 365.702 365.702;" xml:space="preserve">
<g>
	<g>
		<g>
			<path d="M99.415,163.15c-20.713,0-37.564-16.851-37.564-37.564c0-20.713,16.852-37.564,37.564-37.564
				c20.713,0,37.564,16.852,37.564,37.564C136.979,146.299,120.128,163.15,99.415,163.15z M99.415,103.021
				c-12.442,0-22.564,10.122-22.564,22.564s10.122,22.564,22.564,22.564c12.442,0,22.564-10.122,22.564-22.564
				S111.857,103.021,99.415,103.021z"/>
		</g>
		<path d="M358.202,268.162h-9.804V53.142c0-4.143-3.358-7.5-7.5-7.5H24.803c-4.142,0-7.5,3.357-7.5,7.5v215.02H7.5
			c-4.143,0-7.5,3.358-7.5,7.5v21.402c0,4.143,3.357,7.5,7.5,7.5h37.323v7.996c0,4.143,3.357,7.5,7.5,7.5h91.805
			c4.143,0,7.5-3.357,7.5-7.5v-7.996h206.574c4.143,0,7.5-3.357,7.5-7.5v-21.402C365.702,271.519,362.345,268.162,358.202,268.162z
			 M44.823,289.564H15v-6.402h29.823V289.564z M44.823,188.771v79.391H32.303V60.642h301.096v207.52H151.628v-38.525l28.995,25.609
			c2.513,1.964,4.692,1.893,5.113,1.878c2.035-0.036,3.968-0.897,5.354-2.387l59.896-64.362c3.429-3.647,5.194-8.393,4.972-13.364
			c-0.182-4.068-1.703-7.869-4.304-10.968l43.962-47.176c2.823-3.03,2.656-7.776-0.374-10.601c-3.03-2.823-7.776-2.654-10.601,0.374
			l-43.914,47.125c-3.11-2.292-6.887-3.526-10.848-3.438c-4.962,0.081-9.763,2.21-13.154,5.821l-32.974,35.336
			c0,0-25.232-23.617-25.519-23.817c-4.262-3.347-9.564-5.184-14.996-5.184H69.108C55.718,164.484,44.823,175.379,44.823,188.771z
			 M239.604,175.096c0.05,0.047,0.101,0.093,0.151,0.139c0.954,0.849,1.189,1.798,1.218,2.445c0.04,0.891-0.285,1.75-0.954,2.461
			l-5.848,6.314l-12.493-11.711l5.964-6.308c0.889-0.946,1.938-1.103,2.483-1.111c0.454,0.002,1.341,0.082,2.027,0.767
			c0.053,0.052,0.106,0.104,0.161,0.154L239.604,175.096z M149.093,207.384c-2.21-1.954-5.36-2.427-8.048-1.216
			c-2.688,1.213-4.417,3.888-4.417,6.837v92.055H59.823V188.771c0-5.121,4.165-9.287,9.285-9.287h74.129
			c2.756,0,4.73,1.151,5.901,2.116c0.003,0.003,0.006,0.005,0.009,0.008l29.849,27.979c1.456,1.366,3.396,2.105,5.393,2.023
			c1.995-0.069,3.88-0.933,5.236-2.396l21.801-23.52l12.537,11.752l-38.876,41.73L149.093,207.384z M350.702,289.564H151.628v-6.402
			h199.074V289.564z"/>
	</g>
</g>
<g>
</g>
<g>
</g>
<g>
</g>
<g>
</g>
<g>
</g>
<g>
</g>
<g>
</g>
<g>
</g>
<g>
</g>
<g>
</g>
<g>
</g>
<g>
</g>
<g>
</g>
<g>
</g>
<g>
</g>
</svg>
